<svg xmlns="http://www.w3.org/2000/svg" width="560" height="404" viewBox="0 0 560 404">
  <g fill="#FF2D20" fill-rule="evenodd">
    <path d="M245.88909,56.9141621 C245.98014,57.2493537 246.027441,57.5950856 246.027441,57.9424344 L246.027441,111.946505 C246.027441,113.360413 245.265119,114.664472 244.036176,115.362544 L198.410024,141.459898 L198.410024,193.184961 C198.406086,194.5971 197.646169,195.89886 196.418759,196.596057 L101.183924,251.069771 C100.966516,251.198305 100.724401,251.272459 100.49217,251.356501 C100.398289,251.386163 100.31429,251.440542 100.22535,251.46526 C99.5580564,251.640364 98.8569088,251.640364 98.1896152,251.46526 C98.080911,251.435599 97.9820889,251.376275 97.8783257,251.336726 C97.655976,251.262572 97.4336264,251.188418 97.2261,251.069771 L1.98632411,196.605944 C0.75775071,195.905729 0,194.599609 0,193.184961 L0,31.172749 C0,30.8254002 0.0473019093,30.4796683 0.138351288,30.1444767 C0.167997911,30.0258299 0.237173364,29.922014 0.276702195,29.8132544 C0.355759856,29.6056225 0.424935309,29.393047 0.533639593,29.2002459 C0.60775615,29.0717119 0.716460433,28.9678959 0.800459198,28.8541927 C0.91904569,28.695997 1.01786777,28.527914 1.15621867,28.3894927 C1.26986406,28.2757895 1.41809717,28.1917481 1.54656587,28.0928757 C1.68985788,27.9841162 1.81832658,27.8555821 1.98138301,27.7616534 L1.98632411,27.7567098 L49.6086826,0.522324435 C50.8343789,-0.174108145 52.3358694,-0.174108145 53.5615657,0.522324435 L101.183924,27.7567098 L101.193806,27.7567098 C101.351922,27.8555821 101.48039,27.9841162 101.628623,28.0928757 C101.757092,28.1917481 101.900384,28.2757895 102.01403,28.3894927 C102.15238,28.527914 102.251203,28.695997 102.369789,28.8492491 C102.458729,28.9678959 102.567433,29.0717119 102.64155,29.2002459 C102.750254,29.393047 102.81943,29.6056225 102.898487,29.8132544 C102.938016,29.922014 103.00225,30.0258299 103.036838,30.1444767 C103.126219,30.479891 103.171075,30.8256191 103.170248,31.172749 L103.170248,132.363643 L142.857194,109.667498 L142.857194,57.9424344 C142.856367,57.5953045 142.901222,57.2495763 142.990603,56.9141621 C143.025191,56.7955153 143.089426,56.6966429 143.133895,56.5829398 C143.208012,56.3753078 143.277187,56.1627323 143.385892,55.9699313 C143.460008,55.8413972 143.568713,55.7375813 143.657652,55.6238781 C143.776239,55.4656823 143.875061,55.2975994 144.013412,55.1641217 C144.127057,55.0504185 144.270349,54.966377 144.398818,54.8675047 C144.547051,54.7538015 144.67552,54.6203239 144.838576,54.5313388 L144.838576,54.5263951 L192.460935,27.2920098 C193.687371,26.5917143 195.192322,26.5917143 196.418759,27.2920098 L244.036176,54.5263951 L244.041117,54.5263951 C244.209115,54.6252675 244.337584,54.7538015 244.485817,54.8625611 C244.609344,54.9614334 244.757577,55.0504185 244.871223,55.1591781 C245.009574,55.2975994 245.108396,55.4656823 245.222041,55.6189345 C245.310981,55.7375813 245.419685,55.8413972 245.493802,55.9699313 C245.607447,56.1627323 245.671682,56.3753078 245.750739,56.5829398 C245.795209,56.6966429 245.859444,56.7955153 245.88909,56.9141621 Z M238.092028,109.667498 L238.092028,64.7596821 L221.425685,74.2909754 L198.410024,87.4558271 L198.410024,132.363643 L238.087087,109.667498 L238.092028,109.667498 Z M190.474611,190.905954 L190.474611,145.968476 L167.824591,158.811993 L103.170248,195.468912 L103.170248,240.826597 L190.474611,190.896067 L190.474611,190.905954 Z M7.9354131,37.9899967 L7.9354131,190.905954 L95.2348352,240.836484 L95.2348352,195.483743 L49.628447,169.846146 L49.6185648,169.831315 L49.5988004,169.826371 C49.4406851,169.737386 49.3171575,169.608852 49.1738655,169.500093 C49.0453968,169.40122 48.9070459,169.322122 48.7934005,169.213363 L48.7835183,169.198532 C48.6550496,169.074942 48.5661097,168.92169 48.4574054,168.783268 C48.3585833,168.654734 48.2399969,168.541031 48.1609392,168.40261 L48.1559981,168.387779 C48.0670582,168.23947 48.0127061,168.0615 47.9484717,167.893417 C47.8842374,167.750052 47.8002386,167.611631 47.7607098,167.453435 L47.7607098,167.448492 C47.7063576,167.260634 47.7014165,167.06289 47.676711,166.870089 C47.6618877,166.72178 47.6174178,166.578415 47.6174178,166.425163 L47.6174178,60.6811981 L24.6066973,47.52129 L7.9354131,37.9899967 Z M51.5851241,8.48649121 L11.9228839,31.1776927 L51.5851241,53.8590069 L91.2523055,31.172749 L51.5851241,8.48649121 Z M72.2191736,150.061791 L95.2348352,136.901883 L95.2348352,37.9899967 L78.5734331,47.52129 L55.5528305,60.6861418 L55.5528305,159.593084 L72.2191736,150.061791 L72.2191736,150.061791 Z M194.442317,35.2611202 L154.775136,57.9424344 L194.442317,80.6286922 L234.104558,57.9424344 L194.442317,35.2611202 Z M190.474611,87.4558271 L167.454008,74.2909754 L150.792606,64.7596821 L150.792606,109.667498 L173.808268,122.832349 L190.474611,132.363643 L190.474611,87.4508835 L190.474611,87.4558271 Z M99.1976004,188.651664 L157.379098,155.657965 L186.462435,139.16606 L146.8249,116.494633 L101.183924,142.59693 L59.5897123,166.385614 L99.1976004,188.651664 Z" transform="translate(156.791)"/>
    <g transform="translate(0 268.563)">
      <polygon points="21.998 0 21.998 113.441 63.315 113.441 63.315 133.008 0 133.008 0 0"/>
      <path d="M113.423038,42.1789391 C118.650726,42.1789391 123.848767,43.4494487 129.01222,45.9855241 C134.175674,48.516656 138.163145,52.0019059 140.969692,56.4313866 L140.969692,44.4678338 L161.816209,44.4678338 L161.816209,133.008012 L140.964751,133.008012 L140.964751,121.034572 C138.163145,125.468996 134.175674,128.954246 129.007279,131.485378 C123.848767,134.01651 118.650726,135.282076 113.423038,135.282076 C106.663608,135.282076 100.477346,134.046171 94.8691931,131.579307 C89.4095182,129.217486 84.4934673,125.757842 80.4263467,121.41523 C76.4057877,117.103676 73.2281946,112.076635 71.0580139,106.594267 C68.8033305,100.911549 67.6658469,94.8469203 67.7079455,88.7329792 C67.7079455,82.52874 68.8246349,76.606287 71.0580139,70.9656202 C73.2139867,65.4494809 76.3925463,60.3907195 80.4263467,56.0556717 C84.4937396,51.712133 89.4096347,48.2509153 94.8691931,45.8866518 C100.477346,43.4148434 106.663608,42.1789391 113.423038,42.1789391 Z M114.569374,60.6136865 C110.616491,60.6136865 107.044073,61.3750035 103.857061,62.8926938 C100.670049,64.4153278 97.9277364,66.4422107 95.6350642,68.9733426 C93.3034259,71.5676463 91.5157052,74.6036101 90.3777297,77.9015147 C89.153773,81.3805723 88.5386505,85.044754 88.5588954,88.7329792 C88.5588954,92.5346206 89.1622182,96.1484045 90.3777297,99.5595002 C91.5143744,102.859498 93.3022067,105.897332 95.6350642,108.492616 C97.948925,111.04126 100.743036,113.107669 103.857061,114.573265 C107.044073,116.095899 110.616491,116.852272 114.569374,116.852272 C118.522257,116.852272 122.129263,116.095899 125.380509,114.578208 C128.5337,113.130262 131.363463,111.062341 133.701328,108.497559 C136.039436,105.889491 137.855976,102.857027 139.052543,99.5644438 C140.335898,96.0999823 140.985307,92.4326385 140.969967,88.7379228 C140.969967,84.9313378 140.327348,81.3224975 139.052543,77.9015147 C137.854857,74.6109474 136.038404,71.5803074 133.701328,68.9733426 C131.36247,66.4096686 128.532947,64.3419232 125.380509,62.8926938 C122.124322,61.3750035 118.522257,60.6136865 114.569374,60.6136865 Z"/>
      <polygon points="178.265 133.003 178.265 44.463 234.885 44.463 234.885 64.84 199.112 64.84 199.112 133.003 178.265 133.003"/>
      <path d="M282.893016,42.1789391 C288.120704,42.1789391 293.318745,43.4494487 298.482199,45.9855241 C303.645652,48.516656 307.628182,52.0019059 310.43967,56.4313866 L310.43967,44.4678338 L331.286187,44.4678338 L331.286187,133.008012 L310.434729,133.008012 L310.434729,121.034572 C307.628182,125.468996 303.645652,128.954246 298.477258,131.485378 C293.318745,134.01651 288.120704,135.282076 282.893016,135.282076 C276.128645,135.282076 269.947324,134.046171 264.339171,131.579307 C258.879497,129.217486 253.963446,125.757842 249.896325,121.41523 C245.875766,117.103676 242.698173,112.076635 240.527992,106.594267 C238.273309,100.911549 237.135825,94.8469203 237.177924,88.7329792 C237.177924,82.52874 238.289672,76.606287 240.527992,70.9656202 C242.683965,65.4494809 245.862525,60.3907195 249.896325,56.0556717 C253.963718,51.712133 258.879613,48.2509153 264.339171,45.8866518 C269.947324,43.4148434 276.128645,42.1789391 282.893016,42.1789391 Z M284.039352,60.6136865 C280.086469,60.6136865 276.514051,61.3750035 273.327039,62.8926938 C270.140027,64.4153278 267.397715,66.4422107 265.105043,68.9733426 C262.771635,71.5672138 260.982217,74.6032072 259.842767,77.9015147 C258.61881,81.3805723 258.003688,85.044754 258.023933,88.7329792 C258.023933,92.5346206 258.627255,96.1484045 259.842767,99.5595002 C260.980886,102.859901 262.770416,105.897765 265.105043,108.492616 C267.418903,111.04126 270.213014,113.107669 273.327039,114.573265 C276.514051,116.095899 280.086469,116.852272 284.039352,116.852272 C287.992235,116.852272 291.599241,116.095899 294.845546,114.578208 C297.998737,113.130262 300.8285,111.062341 303.166365,108.497559 C305.506239,105.889906 307.324473,102.857414 308.522522,99.5644438 C309.804192,96.0996718 310.451925,92.4323373 310.435063,88.7379228 C310.435063,84.9313378 309.792385,81.3224975 308.522522,77.9015147 C307.323353,74.6105603 305.505206,71.5798931 303.166365,68.9733426 C300.827508,66.4096686 297.997985,64.3419232 294.845546,62.8926938 C291.5943,61.3750035 287.992235,60.6136865 284.039352,60.6136865 Z"/>
      <polygon points="414.87 44.463 435.988 44.463 401.766 133.003 375.568 133.003 341.346 44.463 362.465 44.463 388.667 112.265 414.87 44.463"/>
      <path d="M481.456214,42.1888264 C509.847796,42.1888264 529.207041,67.1788097 525.570389,96.4301907 L456.404818,96.4301907 C456.404818,104.068079 464.167292,118.834662 482.60255,118.834662 C498.463493,118.834662 509.086866,104.977704 509.096749,104.967817 L523.178894,115.794338 C510.588962,129.151991 500.276878,135.287019 484.129351,135.287019 C455.273305,135.287019 435.721357,117.153833 435.721357,88.7379228 C435.721357,63.0311151 455.930472,42.1888264 481.456214,42.1888264 Z M481.293157,58.6362397 C459.023603,58.6362397 456.622226,79.3351635 456.45917,81.0407114 L506.423611,81.0407114 C506.270437,79.3351635 503.562712,58.6362397 481.293157,58.6362397 Z"/>
      <polygon points="539.149 133.003 539.149 0 560 0 560 133.003 539.149 133.003"/>
    </g>
  </g>
</svg>
